# xmcd
#
# Track frame offsets:
# 150
# 15557
# 36525
# 57568
# 89961
# 112836
# 137597
# 155582
# 176209
# 202056
# 223956
# 239207
# 264398
#
# Disc length: 3735 seconds
#
#
# Revision: 0
# Processed by: cddbd v1.5.2PL0 Copyright (c) Steve Scherf et al.
# Submitted via: Nero 7, 11, 10, 0 
#
DISCID=d10e950d
DTITLE=Glenn Lane - Born To Sing The Blues
DYEAR=1996
DGENRE=Blues
TTITLE0=It's Alright
TTITLE1=Keep The Faith
TTITLE2=Good Thang
TTITLE3=Born To Sing The Blues
TTITLE4=36-24-36
TTITLE5=My Story
TTITLE6=How Lucky Can A Man Be
TTITLE7=OoWee Baby
TTITLE8=Allow Me To Come Back Home
TTITLE9=Wish I'd Never Met You
TTITLE10=I Want You For Myself
TTITLE11=Blues In Tight Blue Jeans
TTITLE12=Alabama County Jail
EXTD=
EXTT0=It's Alright
EXTT1=Keep The Faith
EXTT2=Good Thang
EXTT3=Born To Sing The Blues
EXTT4=36-24-36
EXTT5=My Story
EXTT6=How Lucky Can A Man Be
EXTT7=OoWee Baby
EXTT8=Allow Me To Come Back Home
EXTT9=Wish I'd Never Met You
EXTT10=I Want You For Myself
EXTT11=Blues In Tight Blue Jeans
EXTT12=Alabama County Jail
PLAYORDER=
